<svg width="12" height="12" viewBox="0 0 12 12" fill="#fff" xmlns="http://www.w3.org/2000/svg">
    <g id="linkedin">
        <path id="Vector"
            d="M2.63596 11.3106H0.356874V3.97133H2.63596V11.3106ZM1.49519 2.97018C0.766413 2.97018 0.175293 2.36655 0.175293 1.63777C0.175293 1.28771 0.314353 0.951989 0.561882 0.70446C0.809411 0.456931 1.14513 0.317871 1.49519 0.317871C1.84525 0.317871 2.18097 0.456931 2.4285 0.70446C2.67603 0.951989 2.81509 1.28771 2.81509 1.63777C2.81509 2.36655 2.22372 2.97018 1.49519 2.97018ZM11.1659 11.3106H8.89168V7.73791C8.89168 6.88645 8.8745 5.79451 7.70674 5.79451C6.5218 5.79451 6.34022 6.71959 6.34022 7.67657V11.3106H4.06358V3.97133H6.24943V4.97248H6.28133C6.5856 4.39584 7.32885 3.7873 8.43773 3.7873C10.7443 3.7873 11.1683 5.3062 11.1683 7.27905V11.3106H11.1659Z"
        />
    </g>
</svg>
    