<svg id="Layer_1" xmlns="http://www.w3.org/2000/svg" viewBox="0 0 1953.63 250">
    <path class="cls-1"
        d="m197.53,210.48c-4.29,0-7.77,3.48-7.77,7.77s3.48,7.77,7.77,7.77,7.77-3.48,7.77-7.77-3.48-7.77-7.77-7.77Z"></path>
    <path class="cls-1"
        d="m180.85,204.65c-3.68,0-6.66,2.98-6.66,6.66s2.98,6.66,6.66,6.66,6.66-2.98,6.66-6.66-2.98-6.66-6.66-6.66Z"></path>
    <path class="cls-1"
        d="m165.4,196.37c-3.07,0-5.55,2.49-5.55,5.55s2.49,5.55,5.55,5.55,5.55-2.49,5.55-5.55-2.49-5.55-5.55-5.55Z"></path>
    <circle class="cls-1" cx="151.6" cy="190.25" r="4.44"></circle>
    <path class="cls-1"
        d="m136.78,176.31c0,1.84,1.49,3.33,3.33,3.33s3.33-1.49,3.33-3.33-1.49-3.33-3.33-3.33-3.33,1.49-3.33,3.33Z"></path>
    <circle class="cls-1" cx="52.47" cy="31.75" r="7.77"></circle>
    <path class="cls-1"
        d="m69.15,45.35c3.68,0,6.66-2.98,6.66-6.66s-2.98-6.66-6.66-6.66-6.66,2.98-6.66,6.66,2.98,6.66,6.66,6.66Z"></path>
    <path class="cls-1"
        d="m84.6,53.63c3.06,0,5.55-2.49,5.55-5.55s-2.49-5.55-5.55-5.55-5.55,2.49-5.55,5.55,2.49,5.55,5.55,5.55Z"></path>
    <path class="cls-1"
        d="m98.4,55.31c-2.45,0-4.44,1.99-4.44,4.44s1.99,4.44,4.44,4.44,4.44-1.99,4.44-4.44-1.99-4.44-4.44-4.44Z"></path>
    <path class="cls-1"
        d="m106.56,73.69c0,1.84,1.49,3.33,3.33,3.33s3.33-1.49,3.33-3.33-1.49-3.33-3.33-3.33-3.33,1.49-3.33,3.33Z"></path>
    <circle class="cls-1" cx="218.25" cy="52.47" r="7.77"></circle>
    <path class="cls-1"
        d="m211.31,62.49c-3.68,0-6.66,2.98-6.66,6.66s2.98,6.66,6.66,6.66,6.66-2.98,6.66-6.66-2.98-6.66-6.66-6.66Z"></path>
    <path class="cls-1"
        d="m201.92,90.15c3.06,0,5.55-2.49,5.55-5.55s-2.49-5.55-5.55-5.55-5.55,2.49-5.55,5.55,2.49,5.55,5.55,5.55Z"></path>
    <path class="cls-1"
        d="m185.81,98.4c0,2.45,1.99,4.44,4.44,4.44s4.44-1.99,4.44-4.44-1.99-4.44-4.44-4.44-4.44,1.99-4.44,4.44Z"></path>
    <path class="cls-1"
        d="m179.64,109.89c0-1.84-1.49-3.33-3.33-3.33s-3.33,1.49-3.33,3.33,1.49,3.33,3.33,3.33,3.33-1.49,3.33-3.33Z"></path>
    <path class="cls-1"
        d="m31.74,189.76c-4.29,0-7.77,3.48-7.77,7.77s3.48,7.77,7.77,7.77,7.77-3.48,7.77-7.77-3.48-7.77-7.77-7.77Z"></path>
    <path class="cls-1"
        d="m38.69,174.19c-3.68,0-6.66,2.98-6.66,6.66s2.98,6.66,6.66,6.66,6.66-2.98,6.66-6.66-2.98-6.66-6.66-6.66Z"></path>
    <path class="cls-1"
        d="m48.08,159.85c-3.07,0-5.55,2.49-5.55,5.55s2.49,5.55,5.55,5.55,5.55-2.49,5.55-5.55-2.49-5.55-5.55-5.55Z"></path>
    <path class="cls-1"
        d="m64.19,151.6c0-2.45-1.99-4.44-4.44-4.44s-4.44,1.99-4.44,4.44,1.99,4.44,4.44,4.44,4.44-1.99,4.44-4.44Z"></path>
    <path class="cls-1"
        d="m73.69,143.44c1.84,0,3.33-1.49,3.33-3.33s-1.49-3.33-3.33-3.33-3.33,1.49-3.33,3.33,1.49,3.33,3.33,3.33Z"></path>
    <path class="cls-1"
        d="m139.65,15.54c4.29,0,7.77-3.48,7.77-7.77s-3.48-7.77-7.77-7.77-7.77,3.48-7.77,7.77,3.48,7.77,7.77,7.77Z"></path>
    <path class="cls-1"
        d="m139.87,24.48c0,3.68,2.98,6.66,6.66,6.66s6.66-2.98,6.66-6.66-2.98-6.66-6.66-6.66-6.66,2.98-6.66,6.66Z"></path>
    <circle class="cls-1" cx="150.83" cy="42.04" r="5.55"></circle>
    <path class="cls-1"
        d="m152.33,55.61c-2.45,0-4.44,1.99-4.44,4.44s1.99,4.44,4.44,4.44,4.44-1.99,4.44-4.44-1.99-4.44-4.44-4.44Z"></path>
    <path class="cls-1"
        d="m153.93,78.03c0-1.84-1.49-3.33-3.33-3.33s-3.33,1.49-3.33,3.33,1.49,3.33,3.33,3.33,3.33-1.49,3.33-3.33Z"></path>
    <path class="cls-1"
        d="m110.35,234.46c-4.29,0-7.77,3.48-7.77,7.77s3.48,7.77,7.77,7.77,7.77-3.48,7.77-7.77-3.48-7.77-7.77-7.77Z"></path>
    <path class="cls-1"
        d="m110.12,225.52c0-3.68-2.98-6.66-6.66-6.66s-6.66,2.98-6.66,6.66,2.98,6.66,6.66,6.66,6.66-2.98,6.66-6.66Z"></path>
    <path class="cls-1"
        d="m104.72,207.96c0-3.07-2.49-5.55-5.55-5.55s-5.55,2.49-5.55,5.55,2.48,5.55,5.55,5.55,5.55-2.49,5.55-5.55Z"></path>
    <path class="cls-1"
        d="m97.67,194.39c2.45,0,4.44-1.99,4.44-4.44s-1.99-4.44-4.44-4.44-4.44,1.99-4.44,4.44,1.99,4.44,4.44,4.44Z"></path>
    <path class="cls-1"
        d="m96.07,171.97c0,1.84,1.49,3.33,3.33,3.33s3.33-1.49,3.33-3.33-1.49-3.33-3.33-3.33-3.33,1.49-3.33,3.33Z"></path>
    <path class="cls-1"
        d="m242.23,131.88c-4.29,0-7.77,3.48-7.77,7.77s3.48,7.77,7.77,7.77,7.77-3.48,7.77-7.77-3.48-7.77-7.77-7.77Z"></path>
    <path class="cls-1"
        d="m225.52,153.2c3.68,0,6.66-2.98,6.66-6.66s-2.98-6.66-6.66-6.66-6.66,2.98-6.66,6.66,2.98,6.66,6.66,6.66Z"></path>
    <circle class="cls-1" cx="207.96" cy="150.83" r="5.55"></circle>
    <path class="cls-1"
        d="m185.5,152.33c0,2.45,1.99,4.44,4.44,4.44s4.44-1.99,4.44-4.44-1.99-4.44-4.44-4.44-4.44,1.99-4.44,4.44Z"></path>
    <path class="cls-1"
        d="m168.63,150.6c0,1.84,1.49,3.33,3.33,3.33s3.33-1.49,3.33-3.33-1.49-3.33-3.33-3.33-3.33,1.49-3.33,3.33Z"></path>
    <path class="cls-1"
        d="m15.54,110.35c0-4.29-3.48-7.77-7.77-7.77s-7.77,3.48-7.77,7.77,3.48,7.77,7.77,7.77,7.77-3.48,7.77-7.77Z"></path>
    <circle class="cls-1" cx="24.48" cy="103.46" r="6.66"></circle>
    <path class="cls-1"
        d="m42.04,93.62c-3.06,0-5.55,2.49-5.55,5.55s2.49,5.55,5.55,5.55,5.55-2.49,5.55-5.55-2.49-5.55-5.55-5.55Z"></path>
    <path class="cls-1"
        d="m60.05,93.23c-2.45,0-4.44,1.99-4.44,4.44s1.99,4.44,4.44,4.44,4.44-1.99,4.44-4.44-1.99-4.44-4.44-4.44Z"></path>
    <path class="cls-1"
        d="m81.36,99.4c0-1.84-1.49-3.33-3.33-3.33s-3.33,1.49-3.33,3.33,1.49,3.33,3.33,3.33,3.33-1.49,3.33-3.33Z"></path>
    <path class="cls-1"
        d="m227.65,175.71c-4.29,0-7.77,3.48-7.77,7.77s3.48,7.77,7.77,7.77,7.77-3.48,7.77-7.77-3.48-7.77-7.77-7.77Z"></path>
    <path class="cls-1"
        d="m209.58,176.77c-3.68,0-6.66,2.98-6.66,6.66s2.98,6.66,6.66,6.66,6.66-2.98,6.66-6.66-2.98-6.66-6.66-6.66Z"></path>
    <path class="cls-1"
        d="m197.26,180.66c0-3.07-2.48-5.55-5.55-5.55s-5.55,2.49-5.55,5.55,2.49,5.55,5.55,5.55,5.55-2.49,5.55-5.55Z"></path>
    <circle class="cls-1" cx="174.5" cy="175.14" r="4.44"></circle>
    <path class="cls-1"
        d="m155.23,166.65c0,1.84,1.49,3.33,3.33,3.33s3.33-1.49,3.33-3.33-1.49-3.33-3.33-3.33-3.33,1.49-3.33,3.33Z"></path>
    <path class="cls-1"
        d="m22.35,74.29c4.29,0,7.77-3.48,7.77-7.77s-3.48-7.77-7.77-7.77-7.77,3.48-7.77,7.77,3.48,7.77,7.77,7.77Z"></path>
    <circle class="cls-1" cx="40.42" cy="66.57" r="6.66"></circle>
    <path class="cls-1"
        d="m52.74,69.34c0,3.07,2.49,5.55,5.55,5.55s5.55-2.49,5.55-5.55-2.49-5.55-5.55-5.55-5.55,2.49-5.55,5.55Z"></path>
    <circle class="cls-1" cx="75.5" cy="74.86" r="4.44"></circle>
    <path class="cls-1"
        d="m94.77,83.35c0-1.84-1.49-3.33-3.33-3.33s-3.33,1.49-3.33,3.33,1.49,3.33,3.33,3.33,3.33-1.49,3.33-3.33Z"></path>
    <circle class="cls-1" cx="183.48" cy="22.35" r="7.77"></circle>
    <path class="cls-1"
        d="m183.43,33.76c-3.68,0-6.66,2.98-6.66,6.66s2.98,6.66,6.66,6.66,6.66-2.98,6.66-6.66-2.98-6.66-6.66-6.66Z"></path>
    <path class="cls-1"
        d="m180.66,63.84c3.07,0,5.55-2.49,5.55-5.55s-2.48-5.55-5.55-5.55-5.55,2.49-5.55,5.55,2.49,5.55,5.55,5.55Z"></path>
    <path class="cls-1"
        d="m175.14,79.94c2.45,0,4.44-1.99,4.44-4.44s-1.99-4.44-4.44-4.44-4.44,1.99-4.44,4.44,1.99,4.44,4.44,4.44Z"></path>
    <path class="cls-1"
        d="m166.65,94.77c1.84,0,3.33-1.49,3.33-3.33s-1.49-3.33-3.33-3.33-3.33,1.49-3.33,3.33,1.49,3.33,3.33,3.33Z"></path>
    <path class="cls-1"
        d="m66.51,219.88c-4.29,0-7.77,3.48-7.77,7.77s3.48,7.77,7.77,7.77,7.77-3.48,7.77-7.77-3.48-7.77-7.77-7.77Z"></path>
    <path class="cls-1"
        d="m66.56,216.24c3.68,0,6.66-2.98,6.66-6.66s-2.98-6.66-6.66-6.66-6.66,2.98-6.66,6.66,2.98,6.66,6.66,6.66Z"></path>
    <path class="cls-1"
        d="m69.34,186.16c-3.06,0-5.55,2.49-5.55,5.55s2.49,5.55,5.55,5.55,5.55-2.49,5.55-5.55-2.49-5.55-5.55-5.55Z"></path>
    <circle class="cls-1" cx="74.86" cy="174.5" r="4.44"></circle>
    <path class="cls-1"
        d="m83.35,155.23c-1.84,0-3.33,1.49-3.33,3.33s1.49,3.33,3.33,3.33,3.33-1.49,3.33-3.33-1.49-3.33-3.33-3.33Z"></path>
    <path class="cls-1"
        d="m93.77,18.83c4.29,0,7.77-3.48,7.77-7.77s-3.48-7.77-7.77-7.77-7.77,3.48-7.77,7.77,3.48,7.77,7.77,7.77Z"></path>
    <circle class="cls-1" cx="106.51" cy="23.87" r="6.66"></circle>
    <path class="cls-1"
        d="m117.19,44.02c3.07,0,5.55-2.49,5.55-5.55s-2.49-5.55-5.55-5.55-5.55,2.49-5.55,5.55,2.48,5.55,5.55,5.55Z"></path>
    <circle class="cls-1" cx="125.45" cy="54.54" r="4.44"></circle>
    <path class="cls-1"
        d="m127.39,71.82c0,1.84,1.49,3.33,3.33,3.33s3.33-1.49,3.33-3.33-1.49-3.33-3.33-3.33-3.33,1.49-3.33,3.33Z"></path>
    <path class="cls-1"
        d="m156.23,231.17c-4.29,0-7.77,3.48-7.77,7.77s3.48,7.77,7.77,7.77,7.77-3.48,7.77-7.77-3.48-7.77-7.77-7.77Z"></path>
    <path class="cls-1"
        d="m143.49,219.46c-3.68,0-6.66,2.98-6.66,6.66s2.98,6.66,6.66,6.66,6.66-2.98,6.66-6.66-2.98-6.66-6.66-6.66Z"></path>
    <path class="cls-1"
        d="m132.81,205.98c-3.07,0-5.55,2.49-5.55,5.55s2.48,5.55,5.55,5.55,5.55-2.49,5.55-5.55-2.49-5.55-5.55-5.55Z"></path>
    <path class="cls-1"
        d="m128.99,195.46c0-2.45-1.99-4.44-4.44-4.44s-4.44,1.99-4.44,4.44,1.99,4.44,4.44,4.44,4.44-1.99,4.44-4.44Z"></path>
    <path class="cls-1"
        d="m122.61,178.18c0-1.84-1.49-3.33-3.33-3.33s-3.33,1.49-3.33,3.33,1.49,3.33,3.33,3.33,3.33-1.49,3.33-3.33Z"></path>
    <path class="cls-1"
        d="m238.94,101.54c4.29,0,7.77-3.48,7.77-7.77s-3.48-7.77-7.77-7.77-7.77,3.48-7.77,7.77,3.48,7.77,7.77,7.77Z"></path>
    <path class="cls-1"
        d="m219.46,106.51c0,3.68,2.98,6.66,6.66,6.66s6.66-2.98,6.66-6.66-2.98-6.66-6.66-6.66-6.66,2.98-6.66,6.66Z"></path>
    <path class="cls-1"
        d="m211.53,111.64c-3.06,0-5.55,2.49-5.55,5.55s2.49,5.55,5.55,5.55,5.55-2.49,5.55-5.55-2.49-5.55-5.55-5.55Z"></path>
    <circle class="cls-1" cx="195.46" cy="125.45" r="4.44"></circle>
    <path class="cls-1"
        d="m178.18,134.05c1.84,0,3.33-1.49,3.33-3.33s-1.49-3.33-3.33-3.33-3.33,1.49-3.33,3.33,1.49,3.33,3.33,3.33Z"></path>
    <circle class="cls-1" cx="11.06" cy="156.23" r="7.77"></circle>
    <circle class="cls-1" cx="23.87" cy="143.49" r="6.66"></circle>
    <path class="cls-1"
        d="m38.47,138.36c3.06,0,5.55-2.49,5.55-5.55s-2.49-5.55-5.55-5.55-5.55,2.49-5.55,5.55,2.49,5.55,5.55,5.55Z"></path>
    <path class="cls-1"
        d="m58.98,124.55c0-2.45-1.99-4.44-4.44-4.44s-4.44,1.99-4.44,4.44,1.99,4.44,4.44,4.44,4.44-1.99,4.44-4.44Z"></path>
    <path class="cls-1"
        d="m75.15,119.28c0-1.84-1.49-3.33-3.33-3.33s-3.33,1.49-3.33,3.33,1.49,3.33,3.33,3.33,3.33-1.49,3.33-3.33Z"></path>
    <polygon class="cls-1"
        points="463.41 171.36 429.09 45.45 404.31 45.45 368.86 171.36 335 45.23 307.72 45.45 353.18 204.54 383.86 204.54 415.68 87.5 448.18 204.54 478.86 204.54 524.31 45.45 497.72 45.45 463.41 171.36"></polygon>
    <path class="cls-1"
        d="m593.63,86.82c-18.18,0-29.32,8.18-36.59,18.18v-59.55h-24.55v159.09h24.55v-58.86c0-23.41,11.82-37.73,31.14-37.73,18.18,0,27.95,11.82,27.95,33.86v62.73h24.55v-64.09c0-40-21.82-53.64-47.05-53.64Z"></path>
    <path class="cls-1"
        d="m710.88,86.82c-35.45,0-59.32,24.09-59.32,59.54s23.86,59.55,59.32,59.55,59.32-23.86,59.32-59.55-23.86-59.54-59.32-59.54Zm0,98.18c-20.68,0-34.09-16.14-34.09-38.64s13.41-38.64,34.09-38.64,34.32,16.14,34.32,38.64-13.64,38.64-34.32,38.64Z"></path>
    <rect class="cls-1" x="782.99" y="45.45" width="24.55" height="159.09"></rect>
    <path class="cls-1"
        d="m876.67,86.82c-33.64,0-56.59,23.64-56.59,59.77s23.18,59.32,60,59.32c28.64,0,47.95-17.5,52.04-40.46h-24.55c-3.41,12.95-14.32,20.45-29.32,20.45-19.32,0-31.36-12.95-32.5-32.95v-1.36h87.73c.45-3.18.68-6.36.68-9.32-.68-34.09-23.18-55.45-57.5-55.45Zm-30,46.82c1.82-16.59,15.23-27.05,30.91-27.05,17.05,0,29.09,9.77,31.14,27.05h-62.05Z"></path>
    <path class="cls-1"
        d="m1075.76,122.73c18.86-4.09,29.55-16.59,29.55-35.91,0-26.14-20-41.36-55-41.36h-58.41v159.09h60.45c38.41,0,59.09-17.27,59.09-44.32,0-23.18-14.55-33.86-35.68-37.5Zm-57.73-55.45h32.95c18.18,0,28.18,8.64,28.18,22.73s-10.23,22.95-28.18,22.95h-32.95v-45.68Zm34.54,115.23h-34.54v-47.95h34.54c20.23,0,32.04,8.64,32.04,24.32,0,14.77-11.14,23.64-32.04,23.64Z"></path>
    <path class="cls-1"
        d="m1179.58,86.82c-35.45,0-59.32,24.09-59.32,59.54s23.86,59.55,59.32,59.55,59.32-23.86,59.32-59.55-23.86-59.54-59.32-59.54Zm0,98.18c-20.68,0-34.09-16.14-34.09-38.64s13.41-38.64,34.09-38.64,34.32,16.14,34.32,38.64-13.64,38.64-34.32,38.64Z"></path>
    <path class="cls-1"
        d="m1338.8,104.32c-7.5-10.23-20-17.5-37.73-17.5-31.59,0-55,23.64-55,59.54s23.41,59.55,55,59.55c18.41,0,30.45-8.64,37.95-18.86l2.95,17.5h21.36V45.45h-24.55v58.86Zm-33.64,80.91c-20.45,0-33.86-15.91-33.86-38.86s13.41-38.64,33.86-38.64,33.86,15.91,33.86,39.09-13.41,38.41-33.86,38.41Z"></path>
    <path class="cls-1"
        d="m1427.85,177.95l-32.5-89.77h-26.14l45.45,117.27-4.77,11.14c-3.86,9.55-5.91,11.82-15.45,11.82h-17.27v21.59h26.36c17.05,0,22.05-8.41,29.32-27.27l52.73-134.54h-26.14l-31.59,89.77Z"></path>
    <polygon class="cls-1"
        points="1628.07 170.68 1577.16 45.45 1543.3 45.45 1543.3 204.54 1568.53 204.54 1568.53 87.5 1616.25 204.54 1638.3 204.54 1686.03 87.5 1686.03 204.54 1711.25 204.54 1711.25 45.45 1678.07 45.45 1628.07 170.68"></polygon>
    <path class="cls-1"
        d="m1853.21,96.14c0-30.91-22.27-50.68-55.45-50.68h-62.73v159.09h26.14v-57.73h35.45l30.23,57.73h29.09l-33.64-63.41c18.64-6.59,30.91-23.64,30.91-45Zm-57.5,27.96h-34.54v-55.91h34.54c18.64,0,30.68,10.91,30.68,27.95s-12.05,27.96-30.68,27.96Z"></path>
    <rect class="cls-1" x="1870.36" y="45.45" width="26.14" height="159.09"></rect>
    <polygon class="cls-1"
        points="1908.39 49.64 1914.94 49.64 1914.94 68.16 1919.8 68.16 1919.8 49.64 1926.35 49.64 1926.35 45.45 1908.39 45.45 1908.39 49.64"></polygon>
    <polygon class="cls-1"
        points="1947.37 45.45 1941.27 62.12 1934.98 45.45 1928.59 45.45 1928.59 68.16 1933.23 68.16 1933.23 52.95 1939.13 68.16 1943.09 68.16 1948.99 52.95 1948.99 68.16 1953.63 68.16 1953.63 45.45 1947.37 45.45"></polygon>
</svg>