<?xml version="1.0" encoding="UTF-8"?>
<svg id="a" data-name="Layer 1" xmlns="http://www.w3.org/2000/svg" viewBox="0 0 1000 368.16">
  <g>
    <path d="M488.3,63.44c0,6.57-2.22,12.13-6.67,16.67-4.45,4.54-9.96,6.81-16.53,6.81s-12.14-2.27-16.68-6.81c-4.54-4.54-6.81-10.1-6.81-16.67s2.27-12.08,6.81-16.53c4.54-4.45,10.1-6.67,16.68-6.67s11.84,2.27,16.38,6.81c4.54,4.54,6.81,10,6.81,16.39ZM484.82,247.3h-39.15V96.79h39.15v150.51Z"/>
    <path d="M659.98,174.22c0,21.66-7.5,39.97-22.48,54.96-14.98,14.99-33.3,22.48-54.95,22.48-13.92,0-26.78-3.38-38.57-10.15v89.03h-39.15v-156.31c0-21.84,7.49-40.21,22.48-55.1,14.98-14.88,33.39-22.33,55.25-22.33s39.97,7.5,54.95,22.47c14.98,14.99,22.48,33.3,22.48,54.96ZM620.83,174.22c0-10.63-3.72-19.67-11.17-27.11-7.44-7.44-16.48-11.17-27.11-11.17s-19.72,3.72-27.26,11.17c-7.54,7.44-11.31,16.48-11.31,27.11s3.77,19.67,11.31,27.12c7.54,7.45,16.62,11.17,27.26,11.17s19.67-3.72,27.11-11.17c7.44-7.44,11.17-16.48,11.17-27.12Z"/>
    <path d="M835.43,285.87c0,27.84-11.41,49.31-34.22,64.39-13.15,8.7-27.55,13.05-43.21,13.05-27.45,0-48.91-11.5-64.38-34.51-8.89-13.34-13.34-27.65-13.34-42.92,0-10.05,1.93-19.72,5.8-29l36.25,14.5c-1.93,4.64-2.9,9.47-2.9,14.5,0,10.63,3.77,19.67,11.31,27.12,7.54,7.44,16.62,11.16,27.26,11.16s19.43-3.79,26.97-11.35c7.54-7.57,11.31-16.6,11.31-27.08,0-17.08-8.01-29.02-24.01-35.81-4.82,1.16-9.64,1.74-14.46,1.74-21.79,0-40.17-7.49-55.11-22.48-14.94-14.98-22.42-33.4-22.42-55.25s7.51-39.97,22.53-54.96c15.03-14.98,33.32-22.47,54.9-22.47l22.62-53.65,30.97,13.15-20.57,48.03c13.63,6.58,24.49,16.14,32.57,28.71,8.08,12.57,12.13,26.29,12.13,41.18,0,22.04-8.03,40.6-24.07,55.68,16.04,15.28,24.07,34.03,24.07,56.26ZM796.27,173.93c0-10.44-3.77-19.43-11.31-26.97s-16.53-11.31-26.97-11.31-19.72,3.72-27.26,11.17c-7.54,7.44-11.31,16.48-11.31,27.11s3.77,19.72,11.31,27.26,16.62,11.31,27.26,11.31,19.67-3.77,27.12-11.31c7.44-7.54,11.17-16.63,11.17-27.26Z"/>
    <path d="M986.8,229.9c-15.08,14.5-32.96,21.75-53.65,21.75-21.85,0-40.27-7.48-55.25-22.43-14.99-14.95-22.48-33.34-22.48-55.15s7.54-39.9,22.62-54.85,33.45-22.43,55.1-22.43c19.72,0,36.92,6.63,51.62,19.9l-23.49,31.43c-7.54-8.12-16.92-12.18-28.13-12.18s-19.72,3.71-27.26,11.12-11.31,16.42-11.31,27.01,3.77,19.65,11.31,27.16,16.62,11.26,27.26,11.26c11.6,0,21.17-4.45,28.71-13.34l24.94,30.74Z"/>
  </g>
  <path d="M198.01,116.06c-29.2,0-43.73-23.84-47.34-36.45l-.08-.29-15.1-57.53c-1.89-7.21,2.42-14.59,9.63-16.49,7.21-1.89,14.59,2.42,16.49,9.63l15.03,57.26c.73,2.29,6.01,16.86,21.38,16.86s20.64-14.57,21.38-16.86l15.03-57.26c1.89-7.21,9.27-11.52,16.49-9.63,7.21,1.89,11.52,9.27,9.63,16.49l-15.18,57.82c-3.61,12.61-18.15,36.45-47.34,36.45Z"/>
  <path d="M92.61,171.33c-4.58,0-8.66-.55-11.81-1.34l-.29-.08-57.38-15.69c-7.19-1.97-11.43-9.39-9.46-16.58,1.97-7.19,9.39-11.42,16.58-9.46l57.1,15.61c2.35.51,17.61,3.23,25.29-10.08,7.69-13.31-2.3-25.17-3.91-26.94l-42.07-41.65c-5.3-5.25-5.34-13.79-.1-19.09,5.25-5.3,13.79-5.34,19.09-.1l42.48,42.06c9.11,9.43,22.49,33.94,7.89,59.22-10.98,19.02-29.51,24.11-43.43,24.11Z"/>
  <path d="M76.17,314.73c-3.48,0-6.95-1.34-9.59-4-5.25-5.3-5.2-13.85.1-19.09l42.07-41.65c1.61-1.78,11.6-13.63,3.91-26.94-7.69-13.31-22.95-10.59-25.29-10.08l-57.1,15.61c-7.19,1.96-14.62-2.27-16.58-9.46-1.97-7.19,2.27-14.62,9.46-16.58l57.66-15.76c12.72-3.18,40.64-2.51,55.23,22.78,14.6,25.28,1.22,49.79-7.89,59.22l-.21.21-42.27,41.85c-2.63,2.6-6.06,3.91-9.5,3.91Z"/>
  <path d="M247.47,351.91c-5.99,0-11.46-4.01-13.05-10.08l-15.03-57.26c-.73-2.29-6.01-16.86-21.38-16.86s-20.64,14.57-21.38,16.86l-15.03,57.26c-1.89,7.21-9.28,11.52-16.49,9.63-7.21-1.89-11.52-9.27-9.63-16.49l15.18-57.82c3.61-12.61,18.15-36.45,47.34-36.45s43.73,23.84,47.34,36.45l.08.29,15.1,57.53c1.89,7.21-2.42,14.59-9.63,16.49-1.15.3-2.3.45-3.44.45Z"/>
  <path d="M319.86,314.73c-3.43,0-6.87-1.3-9.5-3.91l-42.48-42.06c-9.11-9.43-22.49-33.94-7.89-59.22,14.6-25.28,42.51-25.96,55.24-22.78l.29.08,57.38,15.69c7.19,1.97,11.43,9.39,9.46,16.58-1.97,7.19-9.39,11.42-16.58,9.46l-57.1-15.61c-2.35-.51-17.61-3.23-25.29,10.08-7.68,13.31,2.3,25.17,3.92,26.94l42.07,41.65c5.3,5.25,5.34,13.79.1,19.09-2.64,2.67-6.12,4-9.59,4Z"/>
  <path d="M303.42,171.33c-13.92,0-32.44-5.09-43.42-24.11-14.6-25.28-1.22-49.79,7.89-59.22l.21-.21,42.27-41.85c5.3-5.24,13.84-5.2,19.09.1,5.25,5.3,5.2,13.85-.1,19.09l-42.07,41.65c-1.61,1.78-11.6,13.63-3.91,26.94,7.68,13.31,22.94,10.59,25.29,10.08l57.11-15.61c7.2-1.96,14.62,2.27,16.58,9.46,1.97,7.19-2.27,14.62-9.46,16.58l-57.67,15.76c-3.15.79-7.23,1.34-11.81,1.34Z"/>
</svg>