<?xml version="1.0" encoding="utf-8"?>
<svg version="1.1" id="youtube" xmlns:serif="http://www.serif.com/"
    xmlns="http://www.w3.org/2000/svg"
    xmlns:xlink="http://www.w3.org/1999/xlink" x="0px" y="0px" viewBox="0 0 612 504"
    style="enable-background:new 0 0 612 504;" xml:space="preserve" fill="#fff">
    <path d="M599.2,104.7c-7-26.3-27.8-47.1-54.1-54.1C497.4,37.8,306,37.8,306,37.8s-191.4,0-239.1,12.8
	c-26.3,7-47.1,27.8-54.1,54.1C0,152.4,0,252,0,252s0,99.6,12.8,147.3c7,26.3,27.8,47.1,54.1,54.1c47.7,12.8,239.1,12.8,239.1,12.8
	s191.4,0,239.1-12.8c26.3-7,47.1-27.8,54.1-54.1C612,351.6,612,252,612,252S612,152.4,599.2,104.7L599.2,104.7z M244.8,343.8V160.2
	l159,91.8L244.8,343.8L244.8,343.8z" />
</svg>